<?xml version="1.0" encoding="utf-8"?>
<!-- Generator: Adobe Illustrator 16.0.0, SVG Export Plug-In . SVG Version: 6.00 Build 0)  -->
<!DOCTYPE svg PUBLIC "-//W3C//DTD SVG 1.1//EN" "http://www.w3.org/Graphics/SVG/1.1/DTD/svg11.dtd">
<svg version="1.1" id="Layer_1" xmlns="http://www.w3.org/2000/svg" xmlns:xlink="http://www.w3.org/1999/xlink" x="0px" y="0px"
	 width="408px" height="356px" viewBox="0 0 408 356" enable-background="new 0 0 408 356" xml:space="preserve">
<g>
	<path fill-rule="evenodd" clip-rule="evenodd" fill="#FFFFFF" d="M334.737,211.852c-21.43,16.517-44.12,28.588-69.212,36.219
		c1.582,10.361,3.129,20.546,4.694,30.726c2.042,13.287,4.21,26.551,6.111,39.861c1.107,7.753-2.558,13.854-8.551,14.982
		c-6.191,1.166-11.389-2.932-12.646-10.633c-3.646-22.325-7.081-44.694-10.604-67.045c-0.104-0.649-0.253-1.289-0.51-2.592
		c-25.709,4.41-51.383,4.593-77.444-0.135c-1.902,12.175-3.73,23.895-5.566,35.613c-1.765,11.261-3.466,22.537-5.333,33.776
		c-1.316,7.93-6.528,12.275-12.837,11.004c-6.139-1.238-9.639-7.655-8.416-15.565c3.327-21.524,6.689-43.041,10.016-64.565
		c0.258-1.667,0.353-3.365,0.567-5.484c-24.71-7.737-47.628-19.619-68.907-36.278c-3.907,7.659-7.671,15.037-11.438,22.418
		c-7.773,15.229-15.524,30.475-23.335,45.681c-2.991,5.823-7.12,8.384-11.778,7.55c-7.407-1.323-11.421-10.249-7.879-18.048
		c2.549-5.613,5.522-10.98,8.311-16.453c9.494-18.631,18.991-37.262,28.106-55.146c-10.813-12.782-21.346-25.221-31.855-37.682
		c-1.041-1.235-1.983-2.582-2.903-3.936c-4.184-6.158-3.705-13.31,1.165-17.802c4.789-4.417,11.124-3.496,15.695,2.271
		c5.343,6.741,10.46,13.737,16.081,20.17c27.437,31.4,59.555,54.089,97.777,64.205c61.557,16.294,118.999,5.572,171.23-35.764
		c16.798-13.295,31.349-29.412,44.544-47.159c2.008-2.699,5.009-5.06,7.961-6.114c4.347-1.553,8.879,1.313,11.141,5.706
		c2.388,4.64,2.316,9.896-1.282,14.247c-10.617,12.838-21.526,25.365-32.342,37.992c-0.831,0.972-1.806,1.789-2.93,2.892
		c0.711,1.531,1.344,3.027,2.078,4.458c10.971,21.423,21.958,42.835,32.932,64.257c0.755,1.473,1.551,2.945,2.125,4.513
		c2.185,5.952,0.217,12.408-4.624,15.467c-4.854,3.066-10.77,1.638-14.106-3.585c-1.407-2.207-2.534-4.648-3.745-7.01
		C356.353,254.046,345.689,233.226,334.737,211.852z"/>
</g>
<g display="none">
	<path display="inline" fill-rule="evenodd" clip-rule="evenodd" fill="#5D5D5D" d="M14.589,133.727
		C48.83,77.213,95.912,36.929,161.315,21.997c63.131-14.413,120.806-0.268,172.426,38.521c24.502,18.412,44.813,40.799,61.118,66.78
		c1.312,2.09,2.459,4.283,3.682,6.429c0,2,0,3.999,0,5.999c-32.854,54.379-77.905,93.79-140.184,110.151
		c-60.032,15.772-116.347,5.218-167.988-29.129c-29.521-19.636-53.417-44.906-72.299-74.909c-1.248-1.983-2.325-4.073-3.481-6.113
		C14.589,137.726,14.589,135.727,14.589,133.727z M204.513,232.728c23.615-0.094,44.577-3.648,64.723-11.375
		c42.984-16.486,75.874-45.468,102.016-82.769c1.449-2.067,0.285-3.174-0.677-4.552c-17.939-25.712-39.623-47.665-66.285-64.284
		c-49.652-30.95-102.503-37.823-157.878-18.408c-44.25,15.515-77.642,45.289-104.319,83.203c-1.498,2.128-0.647,3.316,0.447,4.889
		c12.713,18.261,27.546,34.584,44.762,48.692C121.976,216.54,161.353,232.447,204.513,232.728z"/>
	<path display="inline" fill-rule="evenodd" clip-rule="evenodd" fill="#5D5D5D" d="M278.552,136.849
		c-0.051,39.642-32.441,71.919-72.116,71.864c-39.639-0.053-71.909-32.441-71.859-72.119c0.051-39.646,32.428-71.906,72.114-71.856
		C246.341,64.789,278.604,97.163,278.552,136.849z M206.731,88.735c-26.39-0.06-48.068,21.425-48.158,47.727
		c-0.089,26.412,21.341,48.121,47.636,48.255c26.575,0.134,48.307-21.406,48.346-47.921
		C254.594,110.427,233.068,88.795,206.731,88.735z"/>
</g>
</svg>
