<?xml version="1.0" encoding="utf-8"?>
<!-- Generator: Adobe Illustrator 16.0.0, SVG Export Plug-In . SVG Version: 6.00 Build 0)  -->
<!DOCTYPE svg PUBLIC "-//W3C//DTD SVG 1.1//EN" "http://www.w3.org/Graphics/SVG/1.1/DTD/svg11.dtd">
<svg version="1.1" id="Layer_1" xmlns="http://www.w3.org/2000/svg" xmlns:xlink="http://www.w3.org/1999/xlink" x="0px" y="0px"
	 width="56.667px" height="72.834px" viewBox="175.333 131.833 56.667 72.834"
	 enable-background="new 175.333 131.833 56.667 72.834" xml:space="preserve">
<rect x="175.333" y="131.833" display="none" fill="#AF9090" width="56.667" height="72.834"/>
<g display="none">
	<path display="inline" fill="#FFFFFF" d="M334.737,211.852c-21.43,16.518-44.12,28.588-69.212,36.22
		c1.582,10.36,3.129,20.546,4.694,30.726c2.042,13.287,4.21,26.551,6.11,39.861c1.107,7.753-2.558,13.854-8.551,14.982
		c-6.191,1.166-11.389-2.933-12.646-10.634c-3.646-22.325-7.08-44.694-10.604-67.045c-0.104-0.649-0.253-1.289-0.51-2.592
		c-25.709,4.41-51.383,4.593-77.444-0.136c-1.902,12.176-3.729,23.896-5.566,35.613c-1.765,11.262-3.466,22.537-5.333,33.776
		c-1.315,7.931-6.527,12.274-12.837,11.004c-6.139-1.237-9.639-7.655-8.416-15.565c3.327-21.523,6.689-43.041,10.017-64.564
		c0.258-1.667,0.353-3.365,0.566-5.484c-24.71-7.736-47.628-19.619-68.906-36.277c-3.907,7.658-7.671,15.037-11.438,22.418
		c-7.772,15.229-15.523,30.475-23.335,45.681c-2.991,5.823-7.12,8.384-11.778,7.55c-7.406-1.322-11.421-10.249-7.879-18.048
		c2.549-5.612,5.522-10.979,8.312-16.453c9.494-18.631,18.991-37.262,28.105-55.146c-10.813-12.782-21.346-25.221-31.854-37.682
		c-1.041-1.235-1.983-2.582-2.903-3.936c-4.184-6.158-3.705-13.31,1.165-17.802c4.789-4.417,11.124-3.496,15.695,2.271
		c5.343,6.741,10.46,13.737,16.081,20.17c27.437,31.4,59.555,54.089,97.776,64.205c61.558,16.294,118.999,5.572,171.23-35.764
		c16.798-13.295,31.349-29.412,44.544-47.159c2.008-2.699,5.009-5.06,7.961-6.114c4.348-1.553,8.879,1.313,11.142,5.706
		c2.388,4.64,2.315,9.896-1.282,14.247c-10.617,12.838-21.526,25.365-32.342,37.992c-0.831,0.972-1.807,1.789-2.931,2.892
		c0.711,1.531,1.345,3.027,2.078,4.459c10.972,21.422,21.958,42.834,32.933,64.256c0.755,1.474,1.551,2.945,2.125,4.514
		c2.185,5.951,0.217,12.408-4.624,15.467c-4.854,3.066-10.771,1.639-14.106-3.585c-1.407-2.207-2.534-4.647-3.745-7.01
		C356.353,254.046,345.689,233.227,334.737,211.852z"/>
</g>
<g>
	<path fill="#FFFFFF" d="M179,177.606c4.46-7.359,10.591-12.605,19.107-14.55c8.221-1.876,15.732-0.035,22.453,5.017
		c3.191,2.397,5.836,5.313,7.959,8.696c0.172,0.272,0.322,0.558,0.48,0.837c0,0.26,0,0.521,0,0.781
		c-4.279,7.082-10.145,12.213-18.256,14.343c-7.816,2.055-15.15,0.681-21.875-3.793c-3.845-2.557-6.957-5.848-9.416-9.755
		c-0.162-0.258-0.303-0.53-0.453-0.795C179,178.127,179,177.866,179,177.606z M203.733,190.498c3.075-0.012,5.804-0.475,8.429-1.48
		c5.596-2.147,9.879-5.922,13.285-10.779c0.188-0.269,0.035-0.414-0.09-0.593c-2.336-3.348-5.158-6.207-8.631-8.371
		c-6.467-4.031-13.349-4.926-20.56-2.397c-5.763,2.02-10.111,5.897-13.585,10.835c-0.194,0.277-0.084,0.431,0.059,0.636
		c1.655,2.378,3.587,4.504,5.829,6.341C192.984,188.391,198.112,190.461,203.733,190.498z"/>
	<path fill="#FFFFFF" d="M213.375,178.013c-0.008,5.162-4.225,9.365-9.391,9.358c-5.163-0.008-9.365-4.225-9.358-9.392
		c0.007-5.163,4.223-9.364,9.391-9.357C209.179,168.628,213.381,172.844,213.375,178.013z M204.021,171.747
		c-3.437-0.007-6.259,2.79-6.271,6.215c-0.012,3.439,2.778,6.267,6.203,6.284c3.46,0.018,6.29-2.787,6.296-6.241
		C210.254,174.571,207.451,171.755,204.021,171.747z"/>
</g>
<g>
	
		<line fill="none" stroke="#FFFFFF" stroke-width="3" stroke-linecap="round" stroke-miterlimit="10" x1="182.833" y1="188.371" x2="179.268" y2="191.936"/>
	
		<line fill="none" stroke="#FFFFFF" stroke-width="3" stroke-linecap="round" stroke-miterlimit="10" x1="191.954" y1="194.477" x2="189.49" y2="198.875"/>
	
		<line fill="none" stroke="#FFFFFF" stroke-width="3" stroke-linecap="round" stroke-miterlimit="10" x1="203.95" y1="196.817" x2="204" y2="201.858"/>
	
		<line fill="none" stroke="#FFFFFF" stroke-width="3" stroke-linecap="round" stroke-miterlimit="10" x1="225.434" y1="188.371" x2="229" y2="191.936"/>
	
		<line fill="none" stroke="#FFFFFF" stroke-width="3" stroke-linecap="round" stroke-miterlimit="10" x1="216.314" y1="194.477" x2="218.778" y2="198.875"/>
</g>
<g>
	
		<line fill="none" stroke="#FFFFFF" stroke-width="3" stroke-linecap="round" stroke-miterlimit="10" x1="224.435" y1="167.858" x2="228" y2="164.294"/>
	
		<line fill="none" stroke="#FFFFFF" stroke-width="3" stroke-linecap="round" stroke-miterlimit="10" x1="215.314" y1="161.753" x2="217.777" y2="157.354"/>
	
		<line fill="none" stroke="#FFFFFF" stroke-width="3" stroke-linecap="round" stroke-miterlimit="10" x1="203.318" y1="159.412" x2="203.268" y2="154.371"/>
	
		<line fill="none" stroke="#FFFFFF" stroke-width="3" stroke-linecap="round" stroke-miterlimit="10" x1="181.834" y1="167.858" x2="178.268" y2="164.294"/>
	
		<line fill="none" stroke="#FFFFFF" stroke-width="3" stroke-linecap="round" stroke-miterlimit="10" x1="190.954" y1="161.753" x2="188.49" y2="157.354"/>
</g>
</svg>
